# xmcd
#
# Track frame offsets: 
#        150
#        17887
#        39322
#        57710
#        78307
#        100590
#        119095
#        137262
#        159867
#        184125
#        206177
#        226432
#        250515
#        268077
#
# Disc length: 3887 seconds
#
# Revision: 0
# Processed by: cddbd v1.5.2PL0 Copyright (c) Steve Scherf et al.
# Submitted via: ExactAudioCopy v0.99pb5
#
DISCID=ba0f2d0e
DTITLE=Jaki Graham - Rhythm Of Life
DYEAR=1996
DGENRE=R&B
TTITLE0=You're One Desire
TTITLE1=Walking On Water
TTITLE2=You And I
TTITLE3=How Can I Be Sure
TTITLE4=Show A Little Love
TTITLE5=Rhythm Of Life
TTITLE6=Rain Down On Me
TTITLE7=How Long Must I Wait
TTITLE8=All I Do
TTITLE9=As We Lay
TTITLE10=Wishing On Every Star
TTITLE11=I'll Be Good To You
TTITLE12=The Only Love
TTITLE13=Style
EXTD=
EXTT0=
EXTT1=
EXTT2=
EXTT3=
EXTT4=
EXTT5=
EXTT6=
EXTT7=
EXTT8=
EXTT9=
EXTT10=
EXTT11=
EXTT12=
EXTT13=
PLAYORDER=
